<?xml version="1.0" encoding="UTF-8"?><svg id="Layer_2" xmlns="http://www.w3.org/2000/svg" xmlns:xlink="http://www.w3.org/1999/xlink" viewBox="0 0 758 720"><defs><linearGradient id="linear-gradient" x1="379" y1="689.96" x2="379" y2="30" gradientUnits="userSpaceOnUse"><stop offset="0" stop-color="#e099ff"/><stop offset=".42" stop-color="#b5abf1"/><stop offset=".99" stop-color="#7ec3e1"/></linearGradient><filter id="outer-glow-1" filterUnits="userSpaceOnUse"><feOffset dx="0" dy="0"/><feGaussianBlur result="blur" stdDeviation="10"/><feFlood flood-color="#000" flood-opacity=".75"/><feComposite in2="blur" operator="in"/><feComposite in="SourceGraphic"/></filter></defs><g id="Layer_1-2"><path d="m220.48,447.58L36.12,298.15c-5.59-2.79-6.98-9.78-5.59-15.36s6.98-9.78,12.57-9.78l237.42-12.57,85.19-222.06c2.79-4.19,8.38-8.38,13.97-8.38s11.17,4.19,12.57,8.38l85.19,222.06,237.42,12.57c5.59,0,11.17,4.19,12.57,9.78,1.4,5.59,0,11.17-4.19,15.36l-184.35,149.44m-442.42,192.87l34.34,11.89-13.35,37.61-34.21-12.13,13.22-37.37Zm97.67-166.46l-51.2,144.14-34.34-11.89,47.07-132.25h38.46Zm15.41,155.66l34.34,11.77-17.23,48.53-34.21-12.13,17.11-48.17Zm27.06-75.95l34.34,11.77-14.92,41.86-34.34-11.89,14.92-41.74Zm66.73-79.71l-20.26,57.27-34.34-11.77,16.14-45.5h38.46Zm29.6,115.87l34.34,11.77-31.42,88.33-34.21-12.13,31.3-87.96Zm79.59-115.87l-33.12,93.42-34.34-11.77,29-81.65h38.46Zm11.53,166.46l34.34,11.89-13.35,37.61-34.21-12.13,13.22-37.37Zm30.94-86.75l34.34,11.77-18.81,52.66-34.34-11.89,18.81-52.53Zm66.73-79.71l-20.26,57.27-34.34-11.77,16.14-45.5h38.46Zm20.63,141.1l34.21,11.89-22.32,62.97-34.21-12.13,22.32-62.73Zm88.57-141.1l-42.1,118.78-34.34-11.89,37.98-106.89h38.46Z" style="fill:url(#linear-gradient); filter:url(#outer-glow-1);"/></g></svg>